<svg width="97" height="97" viewBox="0 0 97 97" fill="none" xmlns="http://www.w3.org/2000/svg">
<g id="ferris-wheel-thick">
<g id="base-back">
<path id="legs" d="M46.7724 45.4625C47.0992 43.9365 49.2768 43.9365 49.6036 45.4625L59.9063 93.5778C59.9309 93.6928 59.8432 93.8013 59.7256 93.8013H57.3494C57.2615 93.8013 57.1858 93.7395 57.1683 93.6534L48.2331 49.8259C48.2231 49.7766 48.1527 49.7766 48.1426 49.8258L39.1405 93.6537C39.1228 93.7396 39.0472 93.8013 38.9594 93.8013H36.6504C36.5328 93.8013 36.4451 93.6928 36.4697 93.5778L46.7724 45.4625Z" fill="#191716"/>
</g>
<g id="cars">
<g id="car-9">
<g id="Vector">
<mask id="path-2-outside-1_665_99" maskUnits="userSpaceOnUse" x="20.1875" y="15.3359" width="6" height="3" fill="black">
<rect fill="white" x="20.1875" y="15.3359" width="6" height="3"/>
<path d="M23.3372 16.3359L21.5929 16.3359C21.3687 16.3359 21.1875 16.5199 21.1875 16.7474L21.1875 17.9232C21.2175 17.9183 21.2481 17.9156 21.2788 17.9156L21.3456 17.9156L21.3456 17.2751L23.3372 17.2751L23.3372 17.9156L23.4959 17.9156L23.4959 17.2751L25.4875 17.2751L25.4875 17.9162C25.542 17.9162 25.5945 17.9225 25.6463 17.9328L25.6463 16.7474C25.6463 16.5199 25.4651 16.3359 25.2409 16.3359L23.3379 16.3359L23.3372 16.3359ZM23.3372 17.114L21.3456 17.114L21.3456 16.7474C21.3456 16.6091 21.456 16.4971 21.5922 16.4971L23.3365 16.4971L23.3365 17.114L23.3372 17.114ZM25.2402 16.4971C25.3765 16.4971 25.4869 16.6091 25.4869 16.7474L25.4869 17.114L23.4953 17.114L23.4953 16.4971L25.2402 16.4971Z"/>
</mask>
<path d="M23.3372 16.3359L21.5929 16.3359C21.3687 16.3359 21.1875 16.5199 21.1875 16.7474L21.1875 17.9232C21.2175 17.9183 21.2481 17.9156 21.2788 17.9156L21.3456 17.9156L21.3456 17.2751L23.3372 17.2751L23.3372 17.9156L23.4959 17.9156L23.4959 17.2751L25.4875 17.2751L25.4875 17.9162C25.542 17.9162 25.5945 17.9225 25.6463 17.9328L25.6463 16.7474C25.6463 16.5199 25.4651 16.3359 25.2409 16.3359L23.3379 16.3359L23.3372 16.3359ZM23.3372 17.114L21.3456 17.114L21.3456 16.7474C21.3456 16.6091 21.456 16.4971 21.5922 16.4971L23.3365 16.4971L23.3365 17.114L23.3372 17.114ZM25.2402 16.4971C25.3765 16.4971 25.4869 16.6091 25.4869 16.7474L25.4869 17.114L23.4953 17.114L23.4953 16.4971L25.2402 16.4971Z" fill="#191716"/>
<path d="M23.3372 16.3359L21.5929 16.3359C21.3687 16.3359 21.1875 16.5199 21.1875 16.7474L21.1875 17.9232C21.2175 17.9183 21.2481 17.9156 21.2788 17.9156L21.3456 17.9156L21.3456 17.2751L23.3372 17.2751L23.3372 17.9156L23.4959 17.9156L23.4959 17.2751L25.4875 17.2751L25.4875 17.9162C25.542 17.9162 25.5945 17.9225 25.6463 17.9328L25.6463 16.7474C25.6463 16.5199 25.4651 16.3359 25.2409 16.3359L23.3379 16.3359L23.3372 16.3359ZM23.3372 17.114L21.3456 17.114L21.3456 16.7474C21.3456 16.6091 21.456 16.4971 21.5922 16.4971L23.3365 16.4971L23.3365 17.114L23.3372 17.114ZM25.2402 16.4971C25.3765 16.4971 25.4869 16.6091 25.4869 16.7474L25.4869 17.114L23.4953 17.114L23.4953 16.4971L25.2402 16.4971Z" stroke="#191716" stroke-width="0.123206" mask="url(#path-2-outside-1_665_99)"/>
</g>
<path id="Vector_2" d="M20.9062 18.5005L20.9062 21.0539C20.9062 21.7483 21.4609 22.3106 22.1443 22.3106L32.6746 22.3106C33.3587 22.3106 33.9127 21.7476 33.9127 21.0539L33.9127 18.5005C33.9127 18.2931 33.7471 18.125 33.5427 18.125L29.3414 18.125C28.9926 18.125 28.7098 18.412 28.7098 18.7661L28.7098 19.5767C28.7098 19.9308 28.4271 20.2178 28.0782 20.2178L26.7414 20.2178C26.3925 20.2178 26.1098 19.9308 26.1098 19.5767L26.1098 18.7661C26.1098 18.412 25.827 18.125 25.4782 18.125L21.2769 18.125C21.0725 18.125 20.9069 18.2931 20.9069 18.5005L20.9062 18.5005Z" fill="#191716"/>
<g id="Vector_3">
<mask id="path-4-outside-2_665_99" maskUnits="userSpaceOnUse" x="28.1797" y="15.3359" width="6" height="3" fill="black">
<rect fill="white" x="28.1797" y="15.3359" width="6" height="3"/>
<path d="M31.3294 16.3359L29.5851 16.3359C29.3609 16.3359 29.1797 16.5199 29.1797 16.7474L29.1797 17.9328C29.2308 17.9225 29.2839 17.9169 29.3384 17.9162L29.3384 17.2751L31.33 17.2751L31.33 17.9156L31.4888 17.9156L31.4888 17.2751L33.4804 17.2751L33.4804 17.9156L33.5472 17.9156C33.5785 17.9156 33.6092 17.9183 33.6385 17.9232L33.6385 16.7474C33.6385 16.5199 33.4572 16.3359 33.2331 16.3359L31.33 16.3359L31.3294 16.3359ZM31.3294 17.114L29.3378 17.114L29.3378 16.7474C29.3378 16.6091 29.4481 16.4971 29.5844 16.4971L31.3287 16.4971L31.3287 17.114L31.3294 17.114ZM33.2324 16.4971C33.3687 16.4971 33.479 16.6091 33.479 16.7474L33.479 17.114L31.4874 17.114L31.4874 16.4971L33.2324 16.4971Z"/>
</mask>
<path d="M31.3294 16.3359L29.5851 16.3359C29.3609 16.3359 29.1797 16.5199 29.1797 16.7474L29.1797 17.9328C29.2308 17.9225 29.2839 17.9169 29.3384 17.9162L29.3384 17.2751L31.33 17.2751L31.33 17.9156L31.4888 17.9156L31.4888 17.2751L33.4804 17.2751L33.4804 17.9156L33.5472 17.9156C33.5785 17.9156 33.6092 17.9183 33.6385 17.9232L33.6385 16.7474C33.6385 16.5199 33.4572 16.3359 33.2331 16.3359L31.33 16.3359L31.3294 16.3359ZM31.3294 17.114L29.3378 17.114L29.3378 16.7474C29.3378 16.6091 29.4481 16.4971 29.5844 16.4971L31.3287 16.4971L31.3287 17.114L31.3294 17.114ZM33.2324 16.4971C33.3687 16.4971 33.479 16.6091 33.479 16.7474L33.479 17.114L31.4874 17.114L31.4874 16.4971L33.2324 16.4971Z" fill="#191716"/>
<path d="M31.3294 16.3359L29.5851 16.3359C29.3609 16.3359 29.1797 16.5199 29.1797 16.7474L29.1797 17.9328C29.2308 17.9225 29.2839 17.9169 29.3384 17.9162L29.3384 17.2751L31.33 17.2751L31.33 17.9156L31.4888 17.9156L31.4888 17.2751L33.4804 17.2751L33.4804 17.9156L33.5472 17.9156C33.5785 17.9156 33.6092 17.9183 33.6385 17.9232L33.6385 16.7474C33.6385 16.5199 33.4572 16.3359 33.2331 16.3359L31.33 16.3359L31.3294 16.3359ZM31.3294 17.114L29.3378 17.114L29.3378 16.7474C29.3378 16.6091 29.4481 16.4971 29.5844 16.4971L31.3287 16.4971L31.3287 17.114L31.3294 17.114ZM33.2324 16.4971C33.3687 16.4971 33.479 16.6091 33.479 16.7474L33.479 17.114L31.4874 17.114L31.4874 16.4971L33.2324 16.4971Z" stroke="#191716" stroke-width="0.123206" mask="url(#path-4-outside-2_665_99)"/>
</g>
<g id="umbrella-full">
<path d="M35.1741 9.46993C33.9457 8.38066 32.3642 7.77344 30.7201 7.77344L28.9316 7.77344L28.9847 9.86414L35.027 9.86414C35.2314 9.86414 35.3288 9.60617 35.1748 9.46993L35.1741 9.46993Z" fill="#191716"/>
<path d="M19.7939 9.86414L28.9847 9.86414L28.9316 7.77344L24.1 7.77344C22.4559 7.77344 20.8745 8.37997 19.646 9.46992C19.492 9.60617 19.5888 9.86414 19.7939 9.86414Z" fill="#191716"/>
</g>
<path id="bar-full" d="M27.7746 10.0859L27.0469 10.0859L27.0469 20.0266L27.7746 20.0266L27.7746 10.0859Z" fill="#191716"/>
<rect id="pivot-point" x="25.5703" y="8.94531" width="0.186206" height="0.186206" fill="#191716"/>
</g>
<g id="car-8">
<g id="rail-left">
<mask id="path-8-outside-3_665_99" maskUnits="userSpaceOnUse" x="4.79687" y="34.875" width="6" height="3" fill="black">
<rect fill="white" x="4.79687" y="34.875" width="6" height="3"/>
<path d="M7.94655 35.875L6.20228 35.875C5.97812 35.875 5.79687 36.059 5.79687 36.2865L5.79687 37.4622C5.82685 37.4574 5.85752 37.4546 5.88818 37.4546L5.95495 37.4546L5.95495 36.8142L7.94655 36.8142L7.94655 37.4546L8.10531 37.4546L8.10531 36.8142L10.0969 36.8142L10.0969 37.4553C10.1514 37.4553 10.2039 37.4615 10.2557 37.4719L10.2557 36.2865C10.2557 36.059 10.0744 35.875 9.85026 35.875L7.94723 35.875L7.94655 35.875ZM7.94655 36.653L5.95495 36.653L5.95495 36.2865C5.95495 36.1482 6.06533 36.0361 6.2016 36.0361L7.94587 36.0361L7.94587 36.653L7.94655 36.653ZM9.84958 36.0361C9.98585 36.0361 10.0962 36.1482 10.0962 36.2865L10.0962 36.653L8.10463 36.653L8.10463 36.0361L9.84958 36.0361Z"/>
</mask>
<path d="M7.94655 35.875L6.20228 35.875C5.97812 35.875 5.79687 36.059 5.79687 36.2865L5.79687 37.4622C5.82685 37.4574 5.85752 37.4546 5.88818 37.4546L5.95495 37.4546L5.95495 36.8142L7.94655 36.8142L7.94655 37.4546L8.10531 37.4546L8.10531 36.8142L10.0969 36.8142L10.0969 37.4553C10.1514 37.4553 10.2039 37.4615 10.2557 37.4719L10.2557 36.2865C10.2557 36.059 10.0744 35.875 9.85026 35.875L7.94723 35.875L7.94655 35.875ZM7.94655 36.653L5.95495 36.653L5.95495 36.2865C5.95495 36.1482 6.06533 36.0361 6.2016 36.0361L7.94587 36.0361L7.94587 36.653L7.94655 36.653ZM9.84958 36.0361C9.98585 36.0361 10.0962 36.1482 10.0962 36.2865L10.0962 36.653L8.10463 36.653L8.10463 36.0361L9.84958 36.0361Z" fill="#191716"/>
<path d="M7.94655 35.875L6.20228 35.875C5.97812 35.875 5.79687 36.059 5.79687 36.2865L5.79687 37.4622C5.82685 37.4574 5.85752 37.4546 5.88818 37.4546L5.95495 37.4546L5.95495 36.8142L7.94655 36.8142L7.94655 37.4546L8.10531 37.4546L8.10531 36.8142L10.0969 36.8142L10.0969 37.4553C10.1514 37.4553 10.2039 37.4615 10.2557 37.4719L10.2557 36.2865C10.2557 36.059 10.0744 35.875 9.85026 35.875L7.94723 35.875L7.94655 35.875ZM7.94655 36.653L5.95495 36.653L5.95495 36.2865C5.95495 36.1482 6.06533 36.0361 6.2016 36.0361L7.94587 36.0361L7.94587 36.653L7.94655 36.653ZM9.84958 36.0361C9.98585 36.0361 10.0962 36.1482 10.0962 36.2865L10.0962 36.653L8.10463 36.653L8.10463 36.0361L9.84958 36.0361Z" stroke="#191716" stroke-width="0.123206" mask="url(#path-8-outside-3_665_99)"/>
</g>
<path id="bucket" d="M5.51562 38.0396L5.51562 40.593C5.51562 41.2873 6.07025 41.8496 6.75365 41.8496L17.284 41.8496C17.9681 41.8496 18.522 41.2866 18.522 40.593L18.522 38.0396C18.522 37.8321 18.3565 37.6641 18.1521 37.6641L13.9508 37.6641C13.602 37.6641 13.3192 37.9511 13.3192 38.3052L13.3192 39.1157C13.3192 39.4698 13.0364 39.7568 12.6876 39.7568L11.3508 39.7568C11.0019 39.7568 10.7191 39.4698 10.7191 39.1157L10.7191 38.3052C10.7191 37.9511 10.4364 37.6641 10.0875 37.6641L5.88628 37.6641C5.68188 37.6641 5.51631 37.8321 5.51631 38.0396L5.51562 38.0396Z" fill="#191716"/>
<g id="rail-right">
<mask id="path-10-outside-4_665_99" maskUnits="userSpaceOnUse" x="12.7891" y="34.875" width="6" height="3" fill="black">
<rect fill="white" x="12.7891" y="34.875" width="6" height="3"/>
<path d="M15.9387 35.875L14.1945 35.875C13.9703 35.875 13.7891 36.059 13.7891 36.2865L13.7891 37.4719C13.8402 37.4615 13.8933 37.456 13.9478 37.4553L13.9478 36.8142L15.9394 36.8142L15.9394 37.4546L16.0982 37.4546L16.0982 36.8142L18.0898 36.8142L18.0898 37.4546L18.1566 37.4546C18.1879 37.4546 18.2186 37.4574 18.2479 37.4622L18.2479 36.2865C18.2479 36.059 18.0666 35.875 17.8424 35.875L15.9394 35.875L15.9387 35.875ZM15.9387 36.653L13.9471 36.653L13.9471 36.2865C13.9471 36.1482 14.0575 36.0361 14.1938 36.0361L15.9381 36.0361L15.9381 36.653L15.9387 36.653ZM17.8418 36.0361C17.978 36.0361 18.0884 36.1482 18.0884 36.2865L18.0884 36.653L16.0968 36.653L16.0968 36.0361L17.8418 36.0361Z"/>
</mask>
<path d="M15.9387 35.875L14.1945 35.875C13.9703 35.875 13.7891 36.059 13.7891 36.2865L13.7891 37.4719C13.8402 37.4615 13.8933 37.456 13.9478 37.4553L13.9478 36.8142L15.9394 36.8142L15.9394 37.4546L16.0982 37.4546L16.0982 36.8142L18.0898 36.8142L18.0898 37.4546L18.1566 37.4546C18.1879 37.4546 18.2186 37.4574 18.2479 37.4622L18.2479 36.2865C18.2479 36.059 18.0666 35.875 17.8424 35.875L15.9394 35.875L15.9387 35.875ZM15.9387 36.653L13.9471 36.653L13.9471 36.2865C13.9471 36.1482 14.0575 36.0361 14.1938 36.0361L15.9381 36.0361L15.9381 36.653L15.9387 36.653ZM17.8418 36.0361C17.978 36.0361 18.0884 36.1482 18.0884 36.2865L18.0884 36.653L16.0968 36.653L16.0968 36.0361L17.8418 36.0361Z" fill="#191716"/>
<path d="M15.9387 35.875L14.1945 35.875C13.9703 35.875 13.7891 36.059 13.7891 36.2865L13.7891 37.4719C13.8402 37.4615 13.8933 37.456 13.9478 37.4553L13.9478 36.8142L15.9394 36.8142L15.9394 37.4546L16.0982 37.4546L16.0982 36.8142L18.0898 36.8142L18.0898 37.4546L18.1566 37.4546C18.1879 37.4546 18.2186 37.4574 18.2479 37.4622L18.2479 36.2865C18.2479 36.059 18.0666 35.875 17.8424 35.875L15.9394 35.875L15.9387 35.875ZM15.9387 36.653L13.9471 36.653L13.9471 36.2865C13.9471 36.1482 14.0575 36.0361 14.1938 36.0361L15.9381 36.0361L15.9381 36.653L15.9387 36.653ZM17.8418 36.0361C17.978 36.0361 18.0884 36.1482 18.0884 36.2865L18.0884 36.653L16.0968 36.653L16.0968 36.0361L17.8418 36.0361Z" stroke="#191716" stroke-width="0.123206" mask="url(#path-10-outside-4_665_99)"/>
</g>
<g id="umbrella-full_2">
<path d="M19.7835 29.009C18.555 27.9197 16.9736 27.3125 15.3295 27.3125L13.5409 27.3125L13.5941 29.4032L19.6363 29.4032C19.8408 29.4032 19.9382 29.1452 19.7842 29.009L19.7835 29.009Z" fill="#191716"/>
<path d="M4.40325 29.4032L13.5941 29.4032L13.5409 27.3125L8.70942 27.3125C7.06531 27.3125 5.48388 27.919 4.25539 29.009C4.10141 29.1452 4.19816 29.4032 4.40325 29.4032Z" fill="#191716"/>
</g>
<path id="bar-full_2" d="M12.384 29.625L11.6562 29.625L11.6562 39.5656L12.384 39.5656L12.384 29.625Z" fill="#191716"/>
<rect id="pivot-point_2" x="10.2656" y="28.375" width="0.186206" height="0.186206" fill="#191716"/>
</g>
<g id="car-7">
<g id="rail-left_2">
<mask id="path-14-outside-5_665_99" maskUnits="userSpaceOnUse" x="4.57812" y="57.7656" width="6" height="3" fill="black">
<rect fill="white" x="4.57812" y="57.7656" width="6" height="3"/>
<path d="M7.7278 58.7656L5.98353 58.7656C5.75937 58.7656 5.57812 58.9496 5.57812 59.1771L5.57812 60.3528C5.6081 60.348 5.63877 60.3452 5.66943 60.3452L5.7362 60.3452L5.7362 59.7048L7.7278 59.7048L7.7278 60.3452L7.88656 60.3452L7.88656 59.7048L9.87816 59.7048L9.87816 60.3459C9.93267 60.3459 9.98514 60.3522 10.0369 60.3625L10.0369 59.1771C10.0369 58.9496 9.85568 58.7656 9.63151 58.7656L7.72848 58.7656L7.7278 58.7656ZM7.7278 59.5437L5.7362 59.5437L5.7362 59.1771C5.7362 59.0388 5.84658 58.9268 5.98285 58.9268L7.72712 58.9268L7.72712 59.5437L7.7278 59.5437ZM9.63083 58.9268C9.7671 58.9268 9.87748 59.0388 9.87748 59.1771L9.87748 59.5437L7.88588 59.5437L7.88588 58.9268L9.63083 58.9268Z"/>
</mask>
<path d="M7.7278 58.7656L5.98353 58.7656C5.75937 58.7656 5.57812 58.9496 5.57812 59.1771L5.57812 60.3528C5.6081 60.348 5.63877 60.3452 5.66943 60.3452L5.7362 60.3452L5.7362 59.7048L7.7278 59.7048L7.7278 60.3452L7.88656 60.3452L7.88656 59.7048L9.87816 59.7048L9.87816 60.3459C9.93267 60.3459 9.98514 60.3522 10.0369 60.3625L10.0369 59.1771C10.0369 58.9496 9.85568 58.7656 9.63151 58.7656L7.72848 58.7656L7.7278 58.7656ZM7.7278 59.5437L5.7362 59.5437L5.7362 59.1771C5.7362 59.0388 5.84658 58.9268 5.98285 58.9268L7.72712 58.9268L7.72712 59.5437L7.7278 59.5437ZM9.63083 58.9268C9.7671 58.9268 9.87748 59.0388 9.87748 59.1771L9.87748 59.5437L7.88588 59.5437L7.88588 58.9268L9.63083 58.9268Z" fill="#191716"/>
<path d="M7.7278 58.7656L5.98353 58.7656C5.75937 58.7656 5.57812 58.9496 5.57812 59.1771L5.57812 60.3528C5.6081 60.348 5.63877 60.3452 5.66943 60.3452L5.7362 60.3452L5.7362 59.7048L7.7278 59.7048L7.7278 60.3452L7.88656 60.3452L7.88656 59.7048L9.87816 59.7048L9.87816 60.3459C9.93267 60.3459 9.98514 60.3522 10.0369 60.3625L10.0369 59.1771C10.0369 58.9496 9.85568 58.7656 9.63151 58.7656L7.72848 58.7656L7.7278 58.7656ZM7.7278 59.5437L5.7362 59.5437L5.7362 59.1771C5.7362 59.0388 5.84658 58.9268 5.98285 58.9268L7.72712 58.9268L7.72712 59.5437L7.7278 59.5437ZM9.63083 58.9268C9.7671 58.9268 9.87748 59.0388 9.87748 59.1771L9.87748 59.5437L7.88588 59.5437L7.88588 58.9268L9.63083 58.9268Z" stroke="#191716" stroke-width="0.123206" mask="url(#path-14-outside-5_665_99)"/>
</g>
<path id="bucket_2" d="M5.29687 60.9302L5.29687 63.4836C5.29687 64.178 5.8515 64.7402 6.5349 64.7402L17.0653 64.7402C17.7493 64.7402 18.3033 64.1773 18.3033 63.4836L18.3033 60.9302C18.3033 60.7227 18.1377 60.5547 17.9333 60.5547L13.7321 60.5547C13.3832 60.5547 13.1004 60.8417 13.1004 61.1958L13.1004 62.0064C13.1004 62.3604 12.8177 62.6475 12.4688 62.6475L11.132 62.6475C10.7832 62.6475 10.5004 62.3604 10.5004 62.0064L10.5004 61.1958C10.5004 60.8417 10.2176 60.5547 9.86878 60.5547L5.66753 60.5547C5.46313 60.5547 5.29756 60.7227 5.29756 60.9302L5.29687 60.9302Z" fill="#191716"/>
<g id="rail-right_2">
<mask id="path-16-outside-6_665_99" maskUnits="userSpaceOnUse" x="12.5703" y="57.7656" width="6" height="3" fill="black">
<rect fill="white" x="12.5703" y="57.7656" width="6" height="3"/>
<path d="M15.72 58.7656L13.9757 58.7656C13.7515 58.7656 13.5703 58.9496 13.5703 59.1771L13.5703 60.3625C13.6214 60.3522 13.6746 60.3466 13.7291 60.3459L13.7291 59.7048L15.7207 59.7048L15.7207 60.3452L15.8794 60.3452L15.8794 59.7048L17.871 59.7048L17.871 60.3452L17.9378 60.3452C17.9691 60.3452 17.9998 60.348 18.0291 60.3528L18.0291 59.1771C18.0291 58.9496 17.8479 58.7656 17.6237 58.7656L15.7207 58.7656L15.72 58.7656ZM15.72 59.5437L13.7284 59.5437L13.7284 59.1771C13.7284 59.0388 13.8388 58.9268 13.975 58.9268L15.7193 58.9268L15.7193 59.5437L15.72 59.5437ZM17.623 58.9268C17.7593 58.9268 17.8697 59.0388 17.8697 59.1771L17.8697 59.5437L15.8781 59.5437L15.8781 58.9268L17.623 58.9268Z"/>
</mask>
<path d="M15.72 58.7656L13.9757 58.7656C13.7515 58.7656 13.5703 58.9496 13.5703 59.1771L13.5703 60.3625C13.6214 60.3522 13.6746 60.3466 13.7291 60.3459L13.7291 59.7048L15.7207 59.7048L15.7207 60.3452L15.8794 60.3452L15.8794 59.7048L17.871 59.7048L17.871 60.3452L17.9378 60.3452C17.9691 60.3452 17.9998 60.348 18.0291 60.3528L18.0291 59.1771C18.0291 58.9496 17.8479 58.7656 17.6237 58.7656L15.7207 58.7656L15.72 58.7656ZM15.72 59.5437L13.7284 59.5437L13.7284 59.1771C13.7284 59.0388 13.8388 58.9268 13.975 58.9268L15.7193 58.9268L15.7193 59.5437L15.72 59.5437ZM17.623 58.9268C17.7593 58.9268 17.8697 59.0388 17.8697 59.1771L17.8697 59.5437L15.8781 59.5437L15.8781 58.9268L17.623 58.9268Z" fill="#191716"/>
<path d="M15.72 58.7656L13.9757 58.7656C13.7515 58.7656 13.5703 58.9496 13.5703 59.1771L13.5703 60.3625C13.6214 60.3522 13.6746 60.3466 13.7291 60.3459L13.7291 59.7048L15.7207 59.7048L15.7207 60.3452L15.8794 60.3452L15.8794 59.7048L17.871 59.7048L17.871 60.3452L17.9378 60.3452C17.9691 60.3452 17.9998 60.348 18.0291 60.3528L18.0291 59.1771C18.0291 58.9496 17.8479 58.7656 17.6237 58.7656L15.7207 58.7656L15.72 58.7656ZM15.72 59.5437L13.7284 59.5437L13.7284 59.1771C13.7284 59.0388 13.8388 58.9268 13.975 58.9268L15.7193 58.9268L15.7193 59.5437L15.72 59.5437ZM17.623 58.9268C17.7593 58.9268 17.8697 59.0388 17.8697 59.1771L17.8697 59.5437L15.8781 59.5437L15.8781 58.9268L17.623 58.9268Z" stroke="#191716" stroke-width="0.123206" mask="url(#path-16-outside-6_665_99)"/>
</g>
<g id="umbrella-full_3">
<path d="M19.5648 51.8996C18.3363 50.8103 16.7549 50.2031 15.1107 50.2031L13.3222 50.2031L13.3753 52.2938L19.4176 52.2938C19.622 52.2938 19.7194 52.0359 19.5655 51.8996L19.5648 51.8996Z" fill="#191716"/>
<path d="M4.1845 52.2938L13.3753 52.2938L13.3222 50.2031L8.49067 50.2031C6.84656 50.2031 5.26513 50.8097 4.03664 51.8996C3.88266 52.0359 3.97941 52.2938 4.1845 52.2938Z" fill="#191716"/>
</g>
<path id="bar-full_3" d="M12.1652 52.5156L11.4375 52.5156L11.4375 62.4563L12.1652 62.4563L12.1652 52.5156Z" fill="#191716"/>
<rect id="pivot-point_3" x="10.0469" y="51.1484" width="0.186206" height="0.186206" fill="#191716"/>
</g>
<g id="car-6">
<g id="rail-left_3">
<mask id="path-20-outside-7_665_99" maskUnits="userSpaceOnUse" x="18.5625" y="78.0234" width="6" height="3" fill="black">
<rect fill="white" x="18.5625" y="78.0234" width="6" height="3"/>
<path d="M21.7122 79.0234L19.9679 79.0234C19.7437 79.0234 19.5625 79.2074 19.5625 79.4349L19.5625 80.6107C19.5925 80.6058 19.6231 80.6031 19.6538 80.6031L19.7206 80.6031L19.7206 79.9626L21.7122 79.9626L21.7122 80.6031L21.8709 80.6031L21.8709 79.9626L23.8625 79.9626L23.8625 80.6037C23.917 80.6037 23.9695 80.61 24.0213 80.6203L24.0213 79.4349C24.0213 79.2074 23.8401 79.0234 23.6159 79.0234L21.7129 79.0234L21.7122 79.0234ZM21.7122 79.8015L19.7206 79.8015L19.7206 79.4349C19.7206 79.2966 19.831 79.1846 19.9672 79.1846L21.7115 79.1846L21.7115 79.8015L21.7122 79.8015ZM23.6152 79.1846C23.7515 79.1846 23.8619 79.2966 23.8619 79.4349L23.8619 79.8015L21.8703 79.8015L21.8703 79.1846L23.6152 79.1846Z"/>
</mask>
<path d="M21.7122 79.0234L19.9679 79.0234C19.7437 79.0234 19.5625 79.2074 19.5625 79.4349L19.5625 80.6107C19.5925 80.6058 19.6231 80.6031 19.6538 80.6031L19.7206 80.6031L19.7206 79.9626L21.7122 79.9626L21.7122 80.6031L21.8709 80.6031L21.8709 79.9626L23.8625 79.9626L23.8625 80.6037C23.917 80.6037 23.9695 80.61 24.0213 80.6203L24.0213 79.4349C24.0213 79.2074 23.8401 79.0234 23.6159 79.0234L21.7129 79.0234L21.7122 79.0234ZM21.7122 79.8015L19.7206 79.8015L19.7206 79.4349C19.7206 79.2966 19.831 79.1846 19.9672 79.1846L21.7115 79.1846L21.7115 79.8015L21.7122 79.8015ZM23.6152 79.1846C23.7515 79.1846 23.8619 79.2966 23.8619 79.4349L23.8619 79.8015L21.8703 79.8015L21.8703 79.1846L23.6152 79.1846Z" fill="#191716"/>
<path d="M21.7122 79.0234L19.9679 79.0234C19.7437 79.0234 19.5625 79.2074 19.5625 79.4349L19.5625 80.6107C19.5925 80.6058 19.6231 80.6031 19.6538 80.6031L19.7206 80.6031L19.7206 79.9626L21.7122 79.9626L21.7122 80.6031L21.8709 80.6031L21.8709 79.9626L23.8625 79.9626L23.8625 80.6037C23.917 80.6037 23.9695 80.61 24.0213 80.6203L24.0213 79.4349C24.0213 79.2074 23.8401 79.0234 23.6159 79.0234L21.7129 79.0234L21.7122 79.0234ZM21.7122 79.8015L19.7206 79.8015L19.7206 79.4349C19.7206 79.2966 19.831 79.1846 19.9672 79.1846L21.7115 79.1846L21.7115 79.8015L21.7122 79.8015ZM23.6152 79.1846C23.7515 79.1846 23.8619 79.2966 23.8619 79.4349L23.8619 79.8015L21.8703 79.8015L21.8703 79.1846L23.6152 79.1846Z" stroke="#191716" stroke-width="0.123206" mask="url(#path-20-outside-7_665_99)"/>
</g>
<path id="bucket_3" d="M19.2812 81.188L19.2812 83.7414C19.2812 84.4358 19.8359 84.9981 20.5193 84.9981L31.0496 84.9981C31.7337 84.9981 32.2877 84.4351 32.2877 83.7414L32.2877 81.188C32.2877 80.9806 32.1221 80.8125 31.9177 80.8125L27.7164 80.8125C27.3676 80.8125 27.0848 81.0995 27.0848 81.4536L27.0848 82.2642C27.0848 82.6183 26.8021 82.9053 26.4532 82.9053L25.1164 82.9053C24.7675 82.9053 24.4848 82.6183 24.4848 82.2642L24.4848 81.4536C24.4848 81.0995 24.202 80.8125 23.8532 80.8125L19.6519 80.8125C19.4475 80.8125 19.2819 80.9806 19.2819 81.188L19.2812 81.188Z" fill="#191716"/>
<g id="rail-right_3">
<mask id="path-22-outside-8_665_99" maskUnits="userSpaceOnUse" x="26.5547" y="78.0234" width="6" height="3" fill="black">
<rect fill="white" x="26.5547" y="78.0234" width="6" height="3"/>
<path d="M29.7044 79.0234L27.9601 79.0234C27.7359 79.0234 27.5547 79.2074 27.5547 79.4349L27.5547 80.6203C27.6058 80.61 27.6589 80.6044 27.7134 80.6037L27.7134 79.9626L29.705 79.9626L29.705 80.6031L29.8638 80.6031L29.8638 79.9626L31.8554 79.9626L31.8554 80.6031L31.9222 80.6031C31.9535 80.6031 31.9842 80.6058 32.0135 80.6107L32.0135 79.4349C32.0135 79.2074 31.8322 79.0234 31.6081 79.0234L29.705 79.0234L29.7044 79.0234ZM29.7044 79.8015L27.7128 79.8015L27.7128 79.4349C27.7128 79.2966 27.8231 79.1846 27.9594 79.1846L29.7037 79.1846L29.7037 79.8015L29.7044 79.8015ZM31.6074 79.1846C31.7437 79.1846 31.854 79.2966 31.854 79.4349L31.854 79.8015L29.8624 79.8015L29.8624 79.1846L31.6074 79.1846Z"/>
</mask>
<path d="M29.7044 79.0234L27.9601 79.0234C27.7359 79.0234 27.5547 79.2074 27.5547 79.4349L27.5547 80.6203C27.6058 80.61 27.6589 80.6044 27.7134 80.6037L27.7134 79.9626L29.705 79.9626L29.705 80.6031L29.8638 80.6031L29.8638 79.9626L31.8554 79.9626L31.8554 80.6031L31.9222 80.6031C31.9535 80.6031 31.9842 80.6058 32.0135 80.6107L32.0135 79.4349C32.0135 79.2074 31.8322 79.0234 31.6081 79.0234L29.705 79.0234L29.7044 79.0234ZM29.7044 79.8015L27.7128 79.8015L27.7128 79.4349C27.7128 79.2966 27.8231 79.1846 27.9594 79.1846L29.7037 79.1846L29.7037 79.8015L29.7044 79.8015ZM31.6074 79.1846C31.7437 79.1846 31.854 79.2966 31.854 79.4349L31.854 79.8015L29.8624 79.8015L29.8624 79.1846L31.6074 79.1846Z" fill="#191716"/>
<path d="M29.7044 79.0234L27.9601 79.0234C27.7359 79.0234 27.5547 79.2074 27.5547 79.4349L27.5547 80.6203C27.6058 80.61 27.6589 80.6044 27.7134 80.6037L27.7134 79.9626L29.705 79.9626L29.705 80.6031L29.8638 80.6031L29.8638 79.9626L31.8554 79.9626L31.8554 80.6031L31.9222 80.6031C31.9535 80.6031 31.9842 80.6058 32.0135 80.6107L32.0135 79.4349C32.0135 79.2074 31.8322 79.0234 31.6081 79.0234L29.705 79.0234L29.7044 79.0234ZM29.7044 79.8015L27.7128 79.8015L27.7128 79.4349C27.7128 79.2966 27.8231 79.1846 27.9594 79.1846L29.7037 79.1846L29.7037 79.8015L29.7044 79.8015ZM31.6074 79.1846C31.7437 79.1846 31.854 79.2966 31.854 79.4349L31.854 79.8015L29.8624 79.8015L29.8624 79.1846L31.6074 79.1846Z" stroke="#191716" stroke-width="0.123206" mask="url(#path-22-outside-8_665_99)"/>
</g>
<g id="umbrella-full_4">
<path d="M33.5491 72.1574C32.3207 71.0682 30.7392 70.4609 29.0951 70.4609L27.3066 70.4609L27.3597 72.5516L33.402 72.5516C33.6064 72.5516 33.7038 72.2937 33.5498 72.1574L33.5491 72.1574Z" fill="#191716"/>
<path d="M18.1689 72.5516L27.3597 72.5516L27.3066 70.4609L22.475 70.4609C20.8309 70.4609 19.2495 71.0675 18.021 72.1574C17.867 72.2937 17.9638 72.5516 18.1689 72.5516Z" fill="#191716"/>
</g>
<path id="bar-full_4" d="M26.1496 72.7734L25.4219 72.7734L25.4219 82.7141L26.1496 82.7141L26.1496 72.7734Z" fill="#191716"/>
<rect id="pivot-point_4" x="23.9531" y="71.2969" width="0.186206" height="0.186206" fill="#191716"/>
</g>
<g id="car-5">
<g id="rail-left_4">
<mask id="path-26-outside-9_665_99" maskUnits="userSpaceOnUse" x="41.0078" y="85.5547" width="6" height="3" fill="black">
<rect fill="white" x="41.0078" y="85.5547" width="6" height="3"/>
<path d="M44.1575 86.5547L42.4132 86.5547C42.1891 86.5547 42.0078 86.7387 42.0078 86.9662L42.0078 88.1419C42.0378 88.1371 42.0685 88.1343 42.0991 88.1343L42.1659 88.1343L42.1659 87.4939L44.1575 87.4939L44.1575 88.1343L44.3162 88.1343L44.3162 87.4939L46.3078 87.4939L46.3078 88.135C46.3624 88.135 46.4148 88.1412 46.4666 88.1516L46.4666 86.9662C46.4666 86.7387 46.2854 86.5547 46.0612 86.5547L44.1582 86.5547L44.1575 86.5547ZM44.1575 87.3327L42.1659 87.3327L42.1659 86.9662C42.1659 86.8279 42.2763 86.7158 42.4125 86.7158L44.1568 86.7158L44.1568 87.3327L44.1575 87.3327ZM46.0605 86.7158C46.1968 86.7158 46.3072 86.8279 46.3072 86.9662L46.3072 87.3327L44.3156 87.3327L44.3156 86.7158L46.0605 86.7158Z"/>
</mask>
<path d="M44.1575 86.5547L42.4132 86.5547C42.1891 86.5547 42.0078 86.7387 42.0078 86.9662L42.0078 88.1419C42.0378 88.1371 42.0685 88.1343 42.0991 88.1343L42.1659 88.1343L42.1659 87.4939L44.1575 87.4939L44.1575 88.1343L44.3162 88.1343L44.3162 87.4939L46.3078 87.4939L46.3078 88.135C46.3624 88.135 46.4148 88.1412 46.4666 88.1516L46.4666 86.9662C46.4666 86.7387 46.2854 86.5547 46.0612 86.5547L44.1582 86.5547L44.1575 86.5547ZM44.1575 87.3327L42.1659 87.3327L42.1659 86.9662C42.1659 86.8279 42.2763 86.7158 42.4125 86.7158L44.1568 86.7158L44.1568 87.3327L44.1575 87.3327ZM46.0605 86.7158C46.1968 86.7158 46.3072 86.8279 46.3072 86.9662L46.3072 87.3327L44.3156 87.3327L44.3156 86.7158L46.0605 86.7158Z" fill="#191716"/>
<path d="M44.1575 86.5547L42.4132 86.5547C42.1891 86.5547 42.0078 86.7387 42.0078 86.9662L42.0078 88.1419C42.0378 88.1371 42.0685 88.1343 42.0991 88.1343L42.1659 88.1343L42.1659 87.4939L44.1575 87.4939L44.1575 88.1343L44.3162 88.1343L44.3162 87.4939L46.3078 87.4939L46.3078 88.135C46.3624 88.135 46.4148 88.1412 46.4666 88.1516L46.4666 86.9662C46.4666 86.7387 46.2854 86.5547 46.0612 86.5547L44.1582 86.5547L44.1575 86.5547ZM44.1575 87.3327L42.1659 87.3327L42.1659 86.9662C42.1659 86.8279 42.2763 86.7158 42.4125 86.7158L44.1568 86.7158L44.1568 87.3327L44.1575 87.3327ZM46.0605 86.7158C46.1968 86.7158 46.3072 86.8279 46.3072 86.9662L46.3072 87.3327L44.3156 87.3327L44.3156 86.7158L46.0605 86.7158Z" stroke="#191716" stroke-width="0.123206" mask="url(#path-26-outside-9_665_99)"/>
</g>
<path id="bucket_4" d="M41.7266 88.7193L41.7266 91.2727C41.7266 91.967 42.2812 92.5293 42.9646 92.5293L53.4949 92.5293C54.179 92.5293 54.733 91.9663 54.733 91.2727L54.733 88.7193C54.733 88.5118 54.5674 88.3438 54.363 88.3438L50.1618 88.3438C49.8129 88.3438 49.5301 88.6308 49.5301 88.9849L49.5301 89.7954C49.5301 90.1495 49.2474 90.4365 48.8985 90.4365L47.5617 90.4365C47.2128 90.4365 46.9301 90.1495 46.9301 89.7954L46.9301 88.9849C46.9301 88.6308 46.6473 88.3438 46.2985 88.3438L42.0972 88.3438C41.8928 88.3438 41.7272 88.5118 41.7272 88.7193L41.7266 88.7193Z" fill="#191716"/>
<g id="rail-right_4">
<mask id="path-28-outside-10_665_99" maskUnits="userSpaceOnUse" x="49" y="85.5547" width="6" height="3" fill="black">
<rect fill="white" x="49" y="85.5547" width="6" height="3"/>
<path d="M52.1497 86.5547L50.4054 86.5547C50.1812 86.5547 50 86.7387 50 86.9662L50 88.1516C50.0511 88.1412 50.1042 88.1357 50.1588 88.135L50.1588 87.4939L52.1504 87.4939L52.1504 88.1343L52.3091 88.1343L52.3091 87.4939L54.3007 87.4939L54.3007 88.1343L54.3675 88.1343C54.3988 88.1343 54.4295 88.1371 54.4588 88.1419L54.4588 86.9662C54.4588 86.7387 54.2776 86.5547 54.0534 86.5547L52.1504 86.5547L52.1497 86.5547ZM52.1497 87.3327L50.1581 87.3327L50.1581 86.9662C50.1581 86.8279 50.2685 86.7158 50.4047 86.7158L52.149 86.7158L52.149 87.3327L52.1497 87.3327ZM54.0527 86.7158C54.189 86.7158 54.2994 86.8279 54.2994 86.9662L54.2994 87.3327L52.3078 87.3327L52.3078 86.7158L54.0527 86.7158Z"/>
</mask>
<path d="M52.1497 86.5547L50.4054 86.5547C50.1812 86.5547 50 86.7387 50 86.9662L50 88.1516C50.0511 88.1412 50.1042 88.1357 50.1588 88.135L50.1588 87.4939L52.1504 87.4939L52.1504 88.1343L52.3091 88.1343L52.3091 87.4939L54.3007 87.4939L54.3007 88.1343L54.3675 88.1343C54.3988 88.1343 54.4295 88.1371 54.4588 88.1419L54.4588 86.9662C54.4588 86.7387 54.2776 86.5547 54.0534 86.5547L52.1504 86.5547L52.1497 86.5547ZM52.1497 87.3327L50.1581 87.3327L50.1581 86.9662C50.1581 86.8279 50.2685 86.7158 50.4047 86.7158L52.149 86.7158L52.149 87.3327L52.1497 87.3327ZM54.0527 86.7158C54.189 86.7158 54.2994 86.8279 54.2994 86.9662L54.2994 87.3327L52.3078 87.3327L52.3078 86.7158L54.0527 86.7158Z" fill="#191716"/>
<path d="M52.1497 86.5547L50.4054 86.5547C50.1812 86.5547 50 86.7387 50 86.9662L50 88.1516C50.0511 88.1412 50.1042 88.1357 50.1588 88.135L50.1588 87.4939L52.1504 87.4939L52.1504 88.1343L52.3091 88.1343L52.3091 87.4939L54.3007 87.4939L54.3007 88.1343L54.3675 88.1343C54.3988 88.1343 54.4295 88.1371 54.4588 88.1419L54.4588 86.9662C54.4588 86.7387 54.2776 86.5547 54.0534 86.5547L52.1504 86.5547L52.1497 86.5547ZM52.1497 87.3327L50.1581 87.3327L50.1581 86.9662C50.1581 86.8279 50.2685 86.7158 50.4047 86.7158L52.149 86.7158L52.149 87.3327L52.1497 87.3327ZM54.0527 86.7158C54.189 86.7158 54.2994 86.8279 54.2994 86.9662L54.2994 87.3327L52.3078 87.3327L52.3078 86.7158L54.0527 86.7158Z" stroke="#191716" stroke-width="0.123206" mask="url(#path-28-outside-10_665_99)"/>
</g>
<g id="umbrella-full_5">
<path d="M55.9945 79.6887C54.766 78.5994 53.1845 77.9922 51.5404 77.9922L49.7519 77.9922L49.805 80.0829L55.8473 80.0829C56.0517 80.0829 56.1491 79.8249 55.9951 79.6887L55.9945 79.6887Z" fill="#191716"/>
<path d="M40.6142 80.0829L49.805 80.0829L49.7519 77.9922L44.9204 77.9922C43.2762 77.9922 41.6948 78.5987 40.4663 79.6887C40.3123 79.8249 40.4091 80.0829 40.6142 80.0829Z" fill="#191716"/>
</g>
<path id="bar-full_5" d="M48.5949 80.3047L47.8672 80.3047L47.8672 90.2453L48.5949 90.2453L48.5949 80.3047Z" fill="#191716"/>
<rect id="pivot-point_5" x="46.2812" y="78.7812" width="0.186206" height="0.186206" fill="#191716"/>
</g>
<g id="car-4">
<g id="rail-left_5">
<mask id="path-32-outside-11_665_99" maskUnits="userSpaceOnUse" x="62.6719" y="78.5937" width="6" height="3" fill="black">
<rect fill="white" x="62.6719" y="78.5937" width="6" height="3"/>
<path d="M65.8216 79.5938L64.0773 79.5938C63.8531 79.5938 63.6719 79.7777 63.6719 80.0053L63.6719 81.181C63.7019 81.1761 63.7325 81.1734 63.7632 81.1734L63.83 81.1734L63.83 80.5329L65.8216 80.5329L65.8216 81.1734L65.9803 81.1734L65.9803 80.5329L67.9719 80.5329L67.9719 81.1741C68.0264 81.1741 68.0789 81.1803 68.1307 81.1907L68.1307 80.0053C68.1307 79.7777 67.9494 79.5938 67.7253 79.5938L65.8222 79.5938L65.8216 79.5938ZM65.8216 80.3718L63.83 80.3718L63.83 80.0053C63.83 79.8669 63.9403 79.7549 64.0766 79.7549L65.8209 79.7549L65.8209 80.3718L65.8216 80.3718ZM67.7246 79.7549C67.8609 79.7549 67.9712 79.8669 67.9712 80.0053L67.9712 80.3718L65.9796 80.3718L65.9796 79.7549L67.7246 79.7549Z"/>
</mask>
<path d="M65.8216 79.5938L64.0773 79.5938C63.8531 79.5938 63.6719 79.7777 63.6719 80.0053L63.6719 81.181C63.7019 81.1761 63.7325 81.1734 63.7632 81.1734L63.83 81.1734L63.83 80.5329L65.8216 80.5329L65.8216 81.1734L65.9803 81.1734L65.9803 80.5329L67.9719 80.5329L67.9719 81.1741C68.0264 81.1741 68.0789 81.1803 68.1307 81.1907L68.1307 80.0053C68.1307 79.7777 67.9494 79.5938 67.7253 79.5938L65.8222 79.5938L65.8216 79.5938ZM65.8216 80.3718L63.83 80.3718L63.83 80.0053C63.83 79.8669 63.9403 79.7549 64.0766 79.7549L65.8209 79.7549L65.8209 80.3718L65.8216 80.3718ZM67.7246 79.7549C67.8609 79.7549 67.9712 79.8669 67.9712 80.0053L67.9712 80.3718L65.9796 80.3718L65.9796 79.7549L67.7246 79.7549Z" fill="#191716"/>
<path d="M65.8216 79.5938L64.0773 79.5938C63.8531 79.5938 63.6719 79.7777 63.6719 80.0053L63.6719 81.181C63.7019 81.1761 63.7325 81.1734 63.7632 81.1734L63.83 81.1734L63.83 80.5329L65.8216 80.5329L65.8216 81.1734L65.9803 81.1734L65.9803 80.5329L67.9719 80.5329L67.9719 81.1741C68.0264 81.1741 68.0789 81.1803 68.1307 81.1907L68.1307 80.0053C68.1307 79.7777 67.9494 79.5938 67.7253 79.5938L65.8222 79.5938L65.8216 79.5938ZM65.8216 80.3718L63.83 80.3718L63.83 80.0053C63.83 79.8669 63.9403 79.7549 64.0766 79.7549L65.8209 79.7549L65.8209 80.3718L65.8216 80.3718ZM67.7246 79.7549C67.8609 79.7549 67.9712 79.8669 67.9712 80.0053L67.9712 80.3718L65.9796 80.3718L65.9796 79.7549L67.7246 79.7549Z" stroke="#191716" stroke-width="0.123206" mask="url(#path-32-outside-11_665_99)"/>
</g>
<path id="bucket_5" d="M63.4141 81.7584L63.4141 84.3117C63.4141 85.0061 63.9687 85.5684 64.6521 85.5684L75.1824 85.5684C75.8665 85.5684 76.4205 85.0054 76.4205 84.3117L76.4205 81.7584C76.4205 81.5509 76.2549 81.3828 76.0505 81.3828L71.8493 81.3828C71.5004 81.3828 71.2176 81.6698 71.2176 82.0239L71.2176 82.8345C71.2176 83.1886 70.9349 83.4756 70.586 83.4756L69.2492 83.4756C68.9003 83.4756 68.6176 83.1886 68.6176 82.8345L68.6176 82.0239C68.6176 81.6698 68.3348 81.3828 67.986 81.3828L63.7847 81.3828C63.5803 81.3828 63.4147 81.5509 63.4147 81.7584L63.4141 81.7584Z" fill="#191716"/>
<g id="rail-right_5">
<mask id="path-34-outside-12_665_99" maskUnits="userSpaceOnUse" x="70.6797" y="78.5937" width="6" height="3" fill="black">
<rect fill="white" x="70.6797" y="78.5937" width="6" height="3"/>
<path d="M73.8294 79.5938L72.0851 79.5938C71.8609 79.5938 71.6797 79.7777 71.6797 80.0053L71.6797 81.1907C71.7308 81.1803 71.7839 81.1747 71.8384 81.1741L71.8384 80.5329L73.83 80.5329L73.83 81.1734L73.9888 81.1734L73.9888 80.5329L75.9804 80.5329L75.9804 81.1734L76.0472 81.1734C76.0785 81.1734 76.1092 81.1761 76.1385 81.181L76.1385 80.0053C76.1385 79.7777 75.9572 79.5938 75.7331 79.5938L73.83 79.5938L73.8294 79.5938ZM73.8294 80.3718L71.8378 80.3718L71.8378 80.0053C71.8378 79.8669 71.9481 79.7549 72.0844 79.7549L73.8287 79.7549L73.8287 80.3718L73.8294 80.3718ZM75.7324 79.7549C75.8687 79.7549 75.979 79.8669 75.979 80.0053L75.979 80.3718L73.9874 80.3718L73.9874 79.7549L75.7324 79.7549Z"/>
</mask>
<path d="M73.8294 79.5938L72.0851 79.5938C71.8609 79.5938 71.6797 79.7777 71.6797 80.0053L71.6797 81.1907C71.7308 81.1803 71.7839 81.1747 71.8384 81.1741L71.8384 80.5329L73.83 80.5329L73.83 81.1734L73.9888 81.1734L73.9888 80.5329L75.9804 80.5329L75.9804 81.1734L76.0472 81.1734C76.0785 81.1734 76.1092 81.1761 76.1385 81.181L76.1385 80.0053C76.1385 79.7777 75.9572 79.5938 75.7331 79.5938L73.83 79.5938L73.8294 79.5938ZM73.8294 80.3718L71.8378 80.3718L71.8378 80.0053C71.8378 79.8669 71.9481 79.7549 72.0844 79.7549L73.8287 79.7549L73.8287 80.3718L73.8294 80.3718ZM75.7324 79.7549C75.8687 79.7549 75.979 79.8669 75.979 80.0053L75.979 80.3718L73.9874 80.3718L73.9874 79.7549L75.7324 79.7549Z" fill="#191716"/>
<path d="M73.8294 79.5938L72.0851 79.5938C71.8609 79.5938 71.6797 79.7777 71.6797 80.0053L71.6797 81.1907C71.7308 81.1803 71.7839 81.1747 71.8384 81.1741L71.8384 80.5329L73.83 80.5329L73.83 81.1734L73.9888 81.1734L73.9888 80.5329L75.9804 80.5329L75.9804 81.1734L76.0472 81.1734C76.0785 81.1734 76.1092 81.1761 76.1385 81.181L76.1385 80.0053C76.1385 79.7777 75.9572 79.5938 75.7331 79.5938L73.83 79.5938L73.8294 79.5938ZM73.8294 80.3718L71.8378 80.3718L71.8378 80.0053C71.8378 79.8669 71.9481 79.7549 72.0844 79.7549L73.8287 79.7549L73.8287 80.3718L73.8294 80.3718ZM75.7324 79.7549C75.8687 79.7549 75.979 79.8669 75.979 80.0053L75.979 80.3718L73.9874 80.3718L73.9874 79.7549L75.7324 79.7549Z" stroke="#191716" stroke-width="0.123206" mask="url(#path-34-outside-12_665_99)"/>
</g>
<g id="umbrella-full_6">
<path d="M77.682 72.7434C76.4535 71.6541 74.872 71.0469 73.2279 71.0469L71.4394 71.0469L71.4925 73.1376L77.5348 73.1376C77.7392 73.1376 77.8366 72.8796 77.6826 72.7434L77.682 72.7434Z" fill="#191716"/>
<path d="M62.3017 73.1376L71.4925 73.1376L71.4394 71.0469L66.6079 71.0469C64.9637 71.0469 63.3823 71.6534 62.1538 72.7434C61.9998 72.8796 62.0966 73.1376 62.3017 73.1376Z" fill="#191716"/>
</g>
<path id="bar-full_6" d="M70.2824 73.3438L69.5547 73.3438L69.5547 83.2844L70.2824 83.2844L70.2824 73.3438Z" fill="#191716"/>
<rect id="pivot-point_6" x="67.8281" y="71.8594" width="0.186206" height="0.186206" fill="#191716"/>
</g>
<g id="car-3">
<g id="rail-left_6">
<mask id="path-38-outside-13_665_99" maskUnits="userSpaceOnUse" x="77.5156" y="59" width="6" height="3" fill="black">
<rect fill="white" x="77.5156" y="59" width="6" height="3"/>
<path d="M80.6653 60L78.921 60C78.6969 60 78.5156 60.184 78.5156 60.4115L78.5156 61.5872C78.5456 61.5824 78.5763 61.5796 78.6069 61.5796L78.6737 61.5796L78.6737 60.9392L80.6653 60.9392L80.6653 61.5796L80.8241 61.5796L80.8241 60.9392L82.8157 60.9392L82.8157 61.5803C82.8702 61.5803 82.9226 61.5865 82.9744 61.5969L82.9744 60.4115C82.9744 60.184 82.7932 60 82.569 60L80.666 60L80.6653 60ZM80.6653 60.778L78.6737 60.778L78.6737 60.4115C78.6737 60.2732 78.7841 60.1611 78.9204 60.1611L80.6646 60.1611L80.6646 60.778L80.6653 60.778ZM82.5683 60.1611C82.7046 60.1611 82.815 60.2732 82.815 60.4115L82.815 60.778L80.8234 60.778L80.8234 60.1611L82.5683 60.1611Z"/>
</mask>
<path d="M80.6653 60L78.921 60C78.6969 60 78.5156 60.184 78.5156 60.4115L78.5156 61.5872C78.5456 61.5824 78.5763 61.5796 78.6069 61.5796L78.6737 61.5796L78.6737 60.9392L80.6653 60.9392L80.6653 61.5796L80.8241 61.5796L80.8241 60.9392L82.8157 60.9392L82.8157 61.5803C82.8702 61.5803 82.9226 61.5865 82.9744 61.5969L82.9744 60.4115C82.9744 60.184 82.7932 60 82.569 60L80.666 60L80.6653 60ZM80.6653 60.778L78.6737 60.778L78.6737 60.4115C78.6737 60.2732 78.7841 60.1611 78.9204 60.1611L80.6646 60.1611L80.6646 60.778L80.6653 60.778ZM82.5683 60.1611C82.7046 60.1611 82.815 60.2732 82.815 60.4115L82.815 60.778L80.8234 60.778L80.8234 60.1611L82.5683 60.1611Z" fill="#191716"/>
<path d="M80.6653 60L78.921 60C78.6969 60 78.5156 60.184 78.5156 60.4115L78.5156 61.5872C78.5456 61.5824 78.5763 61.5796 78.6069 61.5796L78.6737 61.5796L78.6737 60.9392L80.6653 60.9392L80.6653 61.5796L80.8241 61.5796L80.8241 60.9392L82.8157 60.9392L82.8157 61.5803C82.8702 61.5803 82.9226 61.5865 82.9744 61.5969L82.9744 60.4115C82.9744 60.184 82.7932 60 82.569 60L80.666 60L80.6653 60ZM80.6653 60.778L78.6737 60.778L78.6737 60.4115C78.6737 60.2732 78.7841 60.1611 78.9204 60.1611L80.6646 60.1611L80.6646 60.778L80.6653 60.778ZM82.5683 60.1611C82.7046 60.1611 82.815 60.2732 82.815 60.4115L82.815 60.778L80.8234 60.778L80.8234 60.1611L82.5683 60.1611Z" stroke="#191716" stroke-width="0.123206" mask="url(#path-38-outside-13_665_99)"/>
</g>
<path id="bucket_6" d="M78.2344 62.1724L78.2344 64.7258C78.2344 65.4202 78.789 65.9824 79.4724 65.9824L90.0028 65.9824C90.6868 65.9824 91.2408 65.4195 91.2408 64.7258L91.2408 62.1724C91.2408 61.9649 91.0752 61.7969 90.8708 61.7969L86.6696 61.7969C86.3207 61.7969 86.0379 62.0839 86.0379 62.438L86.0379 63.2485C86.0379 63.6026 85.7552 63.8897 85.4063 63.8897L84.0695 63.8897C83.7207 63.8897 83.4379 63.6026 83.4379 63.2485L83.4379 62.438C83.4379 62.0839 83.1551 61.7969 82.8063 61.7969L78.605 61.7969C78.4006 61.7969 78.2351 61.9649 78.2351 62.1724L78.2344 62.1724Z" fill="#191716"/>
<g id="rail-right_6">
<mask id="path-40-outside-14_665_99" maskUnits="userSpaceOnUse" x="85.5078" y="59" width="6" height="3" fill="black">
<rect fill="white" x="85.5078" y="59" width="6" height="3"/>
<path d="M88.6575 60L86.9132 60C86.689 60 86.5078 60.184 86.5078 60.4115L86.5078 61.5969C86.5589 61.5865 86.6121 61.581 86.6666 61.5803L86.6666 60.9392L88.6582 60.9392L88.6582 61.5796L88.8169 61.5796L88.8169 60.9392L90.8085 60.9392L90.8085 61.5796L90.8753 61.5796C90.9066 61.5796 90.9373 61.5824 90.9666 61.5872L90.9666 60.4115C90.9666 60.184 90.7854 60 90.5612 60L88.6582 60L88.6575 60ZM88.6575 60.778L86.6659 60.778L86.6659 60.4115C86.6659 60.2732 86.7763 60.1611 86.9125 60.1611L88.6568 60.1611L88.6568 60.778L88.6575 60.778ZM90.5605 60.1611C90.6968 60.1611 90.8072 60.2732 90.8072 60.4115L90.8072 60.778L88.8156 60.778L88.8156 60.1611L90.5605 60.1611Z"/>
</mask>
<path d="M88.6575 60L86.9132 60C86.689 60 86.5078 60.184 86.5078 60.4115L86.5078 61.5969C86.5589 61.5865 86.6121 61.581 86.6666 61.5803L86.6666 60.9392L88.6582 60.9392L88.6582 61.5796L88.8169 61.5796L88.8169 60.9392L90.8085 60.9392L90.8085 61.5796L90.8753 61.5796C90.9066 61.5796 90.9373 61.5824 90.9666 61.5872L90.9666 60.4115C90.9666 60.184 90.7854 60 90.5612 60L88.6582 60L88.6575 60ZM88.6575 60.778L86.6659 60.778L86.6659 60.4115C86.6659 60.2732 86.7763 60.1611 86.9125 60.1611L88.6568 60.1611L88.6568 60.778L88.6575 60.778ZM90.5605 60.1611C90.6968 60.1611 90.8072 60.2732 90.8072 60.4115L90.8072 60.778L88.8156 60.778L88.8156 60.1611L90.5605 60.1611Z" fill="#191716"/>
<path d="M88.6575 60L86.9132 60C86.689 60 86.5078 60.184 86.5078 60.4115L86.5078 61.5969C86.5589 61.5865 86.6121 61.581 86.6666 61.5803L86.6666 60.9392L88.6582 60.9392L88.6582 61.5796L88.8169 61.5796L88.8169 60.9392L90.8085 60.9392L90.8085 61.5796L90.8753 61.5796C90.9066 61.5796 90.9373 61.5824 90.9666 61.5872L90.9666 60.4115C90.9666 60.184 90.7854 60 90.5612 60L88.6582 60L88.6575 60ZM88.6575 60.778L86.6659 60.778L86.6659 60.4115C86.6659 60.2732 86.7763 60.1611 86.9125 60.1611L88.6568 60.1611L88.6568 60.778L88.6575 60.778ZM90.5605 60.1611C90.6968 60.1611 90.8072 60.2732 90.8072 60.4115L90.8072 60.778L88.8156 60.778L88.8156 60.1611L90.5605 60.1611Z" stroke="#191716" stroke-width="0.123206" mask="url(#path-40-outside-14_665_99)"/>
</g>
<g id="umbrella-full_7">
<path d="M92.5023 53.134C91.2738 52.0447 89.6924 51.4375 88.0482 51.4375L86.2597 51.4375L86.3128 53.5282L92.3551 53.5282C92.5595 53.5282 92.6569 53.2702 92.503 53.134L92.5023 53.134Z" fill="#191716"/>
<path d="M77.122 53.5282L86.3128 53.5282L86.2597 51.4375L81.4282 51.4375C79.7841 51.4375 78.2026 52.044 76.9741 53.134C76.8202 53.2702 76.9169 53.5282 77.122 53.5282Z" fill="#191716"/>
</g>
<path id="bar-full_7" d="M85.1027 53.75L84.375 53.75L84.375 63.6906L85.1027 63.6906L85.1027 53.75Z" fill="#191716"/>
<rect id="pivot-point_7" x="82.5938" y="52.375" width="0.186206" height="0.186206" fill="#191716"/>
</g>
<g id="car-2">
<g id="rail-left_7">
<mask id="path-44-outside-15_665_99" maskUnits="userSpaceOnUse" x="77.8906" y="35.0625" width="6" height="3" fill="black">
<rect fill="white" x="77.8906" y="35.0625" width="6" height="3"/>
<path d="M81.0403 36.0625L79.296 36.0625C79.0719 36.0625 78.8906 36.2465 78.8906 36.474L78.8906 37.6497C78.9206 37.6449 78.9513 37.6421 78.9819 37.6421L79.0487 37.6421L79.0487 37.0017L81.0403 37.0017L81.0403 37.6421L81.1991 37.6421L81.1991 37.0017L83.1907 37.0017L83.1907 37.6428C83.2452 37.6428 83.2976 37.649 83.3494 37.6594L83.3494 36.474C83.3494 36.2465 83.1682 36.0625 82.944 36.0625L81.041 36.0625L81.0403 36.0625ZM81.0403 36.8405L79.0487 36.8405L79.0487 36.474C79.0487 36.3357 79.1591 36.2236 79.2954 36.2236L81.0396 36.2236L81.0396 36.8405L81.0403 36.8405ZM82.9433 36.2236C83.0796 36.2236 83.19 36.3357 83.19 36.474L83.19 36.8405L81.1984 36.8405L81.1984 36.2236L82.9433 36.2236Z"/>
</mask>
<path d="M81.0403 36.0625L79.296 36.0625C79.0719 36.0625 78.8906 36.2465 78.8906 36.474L78.8906 37.6497C78.9206 37.6449 78.9513 37.6421 78.9819 37.6421L79.0487 37.6421L79.0487 37.0017L81.0403 37.0017L81.0403 37.6421L81.1991 37.6421L81.1991 37.0017L83.1907 37.0017L83.1907 37.6428C83.2452 37.6428 83.2976 37.649 83.3494 37.6594L83.3494 36.474C83.3494 36.2465 83.1682 36.0625 82.944 36.0625L81.041 36.0625L81.0403 36.0625ZM81.0403 36.8405L79.0487 36.8405L79.0487 36.474C79.0487 36.3357 79.1591 36.2236 79.2954 36.2236L81.0396 36.2236L81.0396 36.8405L81.0403 36.8405ZM82.9433 36.2236C83.0796 36.2236 83.19 36.3357 83.19 36.474L83.19 36.8405L81.1984 36.8405L81.1984 36.2236L82.9433 36.2236Z" fill="#191716"/>
<path d="M81.0403 36.0625L79.296 36.0625C79.0719 36.0625 78.8906 36.2465 78.8906 36.474L78.8906 37.6497C78.9206 37.6449 78.9513 37.6421 78.9819 37.6421L79.0487 37.6421L79.0487 37.0017L81.0403 37.0017L81.0403 37.6421L81.1991 37.6421L81.1991 37.0017L83.1907 37.0017L83.1907 37.6428C83.2452 37.6428 83.2976 37.649 83.3494 37.6594L83.3494 36.474C83.3494 36.2465 83.1682 36.0625 82.944 36.0625L81.041 36.0625L81.0403 36.0625ZM81.0403 36.8405L79.0487 36.8405L79.0487 36.474C79.0487 36.3357 79.1591 36.2236 79.2954 36.2236L81.0396 36.2236L81.0396 36.8405L81.0403 36.8405ZM82.9433 36.2236C83.0796 36.2236 83.19 36.3357 83.19 36.474L83.19 36.8405L81.1984 36.8405L81.1984 36.2236L82.9433 36.2236Z" stroke="#191716" stroke-width="0.123206" mask="url(#path-44-outside-15_665_99)"/>
</g>
<path id="bucket_7" d="M78.6094 38.2271L78.6094 40.7805C78.6094 41.4748 79.164 42.0371 79.8474 42.0371L90.3778 42.0371C91.0618 42.0371 91.6158 41.4741 91.6158 40.7805L91.6158 38.2271C91.6158 38.0196 91.4502 37.8516 91.2458 37.8516L87.0446 37.8516C86.6957 37.8516 86.4129 38.1386 86.4129 38.4927L86.4129 39.3032C86.4129 39.6573 86.1302 39.9443 85.7813 39.9443L84.4445 39.9443C84.0957 39.9443 83.8129 39.6573 83.8129 39.3032L83.8129 38.4927C83.8129 38.1386 83.5301 37.8516 83.1813 37.8516L78.98 37.8516C78.7756 37.8516 78.6101 38.0196 78.6101 38.2271L78.6094 38.2271Z" fill="#191716"/>
<g id="rail-right_7">
<mask id="path-46-outside-16_665_99" maskUnits="userSpaceOnUse" x="85.8828" y="35.0625" width="6" height="3" fill="black">
<rect fill="white" x="85.8828" y="35.0625" width="6" height="3"/>
<path d="M89.0325 36.0625L87.2882 36.0625C87.064 36.0625 86.8828 36.2465 86.8828 36.474L86.8828 37.6594C86.9339 37.649 86.9871 37.6435 87.0416 37.6428L87.0416 37.0017L89.0332 37.0017L89.0332 37.6421L89.1919 37.6421L89.1919 37.0017L91.1835 37.0017L91.1835 37.6421L91.2503 37.6421C91.2816 37.6421 91.3123 37.6449 91.3416 37.6497L91.3416 36.474C91.3416 36.2465 91.1604 36.0625 90.9362 36.0625L89.0332 36.0625L89.0325 36.0625ZM89.0325 36.8405L87.0409 36.8405L87.0409 36.474C87.0409 36.3357 87.1513 36.2236 87.2875 36.2236L89.0318 36.2236L89.0318 36.8405L89.0325 36.8405ZM90.9355 36.2236C91.0718 36.2236 91.1822 36.3357 91.1822 36.474L91.1822 36.8405L89.1906 36.8405L89.1906 36.2236L90.9355 36.2236Z"/>
</mask>
<path d="M89.0325 36.0625L87.2882 36.0625C87.064 36.0625 86.8828 36.2465 86.8828 36.474L86.8828 37.6594C86.9339 37.649 86.9871 37.6435 87.0416 37.6428L87.0416 37.0017L89.0332 37.0017L89.0332 37.6421L89.1919 37.6421L89.1919 37.0017L91.1835 37.0017L91.1835 37.6421L91.2503 37.6421C91.2816 37.6421 91.3123 37.6449 91.3416 37.6497L91.3416 36.474C91.3416 36.2465 91.1604 36.0625 90.9362 36.0625L89.0332 36.0625L89.0325 36.0625ZM89.0325 36.8405L87.0409 36.8405L87.0409 36.474C87.0409 36.3357 87.1513 36.2236 87.2875 36.2236L89.0318 36.2236L89.0318 36.8405L89.0325 36.8405ZM90.9355 36.2236C91.0718 36.2236 91.1822 36.3357 91.1822 36.474L91.1822 36.8405L89.1906 36.8405L89.1906 36.2236L90.9355 36.2236Z" fill="#191716"/>
<path d="M89.0325 36.0625L87.2882 36.0625C87.064 36.0625 86.8828 36.2465 86.8828 36.474L86.8828 37.6594C86.9339 37.649 86.9871 37.6435 87.0416 37.6428L87.0416 37.0017L89.0332 37.0017L89.0332 37.6421L89.1919 37.6421L89.1919 37.0017L91.1835 37.0017L91.1835 37.6421L91.2503 37.6421C91.2816 37.6421 91.3123 37.6449 91.3416 37.6497L91.3416 36.474C91.3416 36.2465 91.1604 36.0625 90.9362 36.0625L89.0332 36.0625L89.0325 36.0625ZM89.0325 36.8405L87.0409 36.8405L87.0409 36.474C87.0409 36.3357 87.1513 36.2236 87.2875 36.2236L89.0318 36.2236L89.0318 36.8405L89.0325 36.8405ZM90.9355 36.2236C91.0718 36.2236 91.1822 36.3357 91.1822 36.474L91.1822 36.8405L89.1906 36.8405L89.1906 36.2236L90.9355 36.2236Z" stroke="#191716" stroke-width="0.123206" mask="url(#path-46-outside-16_665_99)"/>
</g>
<g id="umbrella-full_8">
<path d="M92.8773 29.1965C91.6488 28.1072 90.0674 27.5 88.4232 27.5L86.6347 27.5L86.6878 29.5907L92.7301 29.5907C92.9345 29.5907 93.0319 29.3327 92.878 29.1965L92.8773 29.1965Z" fill="#191716"/>
<path d="M77.497 29.5907L86.6878 29.5907L86.6347 27.5L81.8032 27.5C80.1591 27.5 78.5776 28.1065 77.3491 29.1965C77.1952 29.3327 77.2919 29.5907 77.497 29.5907Z" fill="#191716"/>
</g>
<path id="bar-full_8" d="M85.4777 29.8125L84.75 29.8125L84.75 39.7531L85.4777 39.7531L85.4777 29.8125Z" fill="#191716"/>
<rect id="pivot-point_8" x="82.9609" y="28.5625" width="0.186206" height="0.186206" fill="#191716"/>
</g>
<g id="car-1">
<g id="rail-left_8">
<mask id="path-50-outside-17_665_99" maskUnits="userSpaceOnUse" x="63.3203" y="15.5547" width="6" height="3" fill="black">
<rect fill="white" x="63.3203" y="15.5547" width="6" height="3"/>
<path d="M66.47 16.5547L64.7257 16.5547C64.5016 16.5547 64.3203 16.7387 64.3203 16.9662L64.3203 18.1419C64.3503 18.1371 64.381 18.1343 64.4116 18.1343L64.4784 18.1343L64.4784 17.4939L66.47 17.4939L66.47 18.1343L66.6287 18.1343L66.6287 17.4939L68.6203 17.4939L68.6203 18.135C68.6749 18.135 68.7273 18.1412 68.7791 18.1516L68.7791 16.9662C68.7791 16.7387 68.5979 16.5547 68.3737 16.5547L66.4707 16.5547L66.47 16.5547ZM66.47 17.3327L64.4784 17.3327L64.4784 16.9662C64.4784 16.8279 64.5888 16.7158 64.725 16.7158L66.4693 16.7158L66.4693 17.3327L66.47 17.3327ZM68.373 16.7158C68.5093 16.7158 68.6197 16.8279 68.6197 16.9662L68.6197 17.3327L66.6281 17.3327L66.6281 16.7158L68.373 16.7158Z"/>
</mask>
<path d="M66.47 16.5547L64.7257 16.5547C64.5016 16.5547 64.3203 16.7387 64.3203 16.9662L64.3203 18.1419C64.3503 18.1371 64.381 18.1343 64.4116 18.1343L64.4784 18.1343L64.4784 17.4939L66.47 17.4939L66.47 18.1343L66.6287 18.1343L66.6287 17.4939L68.6203 17.4939L68.6203 18.135C68.6749 18.135 68.7273 18.1412 68.7791 18.1516L68.7791 16.9662C68.7791 16.7387 68.5979 16.5547 68.3737 16.5547L66.4707 16.5547L66.47 16.5547ZM66.47 17.3327L64.4784 17.3327L64.4784 16.9662C64.4784 16.8279 64.5888 16.7158 64.725 16.7158L66.4693 16.7158L66.4693 17.3327L66.47 17.3327ZM68.373 16.7158C68.5093 16.7158 68.6197 16.8279 68.6197 16.9662L68.6197 17.3327L66.6281 17.3327L66.6281 16.7158L68.373 16.7158Z" fill="#191716"/>
<path d="M66.47 16.5547L64.7257 16.5547C64.5016 16.5547 64.3203 16.7387 64.3203 16.9662L64.3203 18.1419C64.3503 18.1371 64.381 18.1343 64.4116 18.1343L64.4784 18.1343L64.4784 17.4939L66.47 17.4939L66.47 18.1343L66.6287 18.1343L66.6287 17.4939L68.6203 17.4939L68.6203 18.135C68.6749 18.135 68.7273 18.1412 68.7791 18.1516L68.7791 16.9662C68.7791 16.7387 68.5979 16.5547 68.3737 16.5547L66.4707 16.5547L66.47 16.5547ZM66.47 17.3327L64.4784 17.3327L64.4784 16.9662C64.4784 16.8279 64.5888 16.7158 64.725 16.7158L66.4693 16.7158L66.4693 17.3327L66.47 17.3327ZM68.373 16.7158C68.5093 16.7158 68.6197 16.8279 68.6197 16.9662L68.6197 17.3327L66.6281 17.3327L66.6281 16.7158L68.373 16.7158Z" stroke="#191716" stroke-width="0.123206" mask="url(#path-50-outside-17_665_99)"/>
</g>
<path id="bucket_8" d="M64.0391 18.7193L64.0391 21.2727C64.0391 21.967 64.5937 22.5293 65.2771 22.5293L75.8074 22.5293C76.4915 22.5293 77.0455 21.9663 77.0455 21.2727L77.0455 18.7193C77.0455 18.5118 76.8799 18.3438 76.6755 18.3438L72.4743 18.3438C72.1254 18.3438 71.8426 18.6308 71.8426 18.9849L71.8426 19.7954C71.8426 20.1495 71.5599 20.4365 71.211 20.4365L69.8742 20.4365C69.5253 20.4365 69.2426 20.1495 69.2426 19.7954L69.2426 18.9849C69.2426 18.6308 68.9598 18.3438 68.611 18.3438L64.4097 18.3438C64.2053 18.3438 64.0397 18.5118 64.0397 18.7193L64.0391 18.7193Z" fill="#191716"/>
<g id="rail-right_8">
<mask id="path-52-outside-18_665_99" maskUnits="userSpaceOnUse" x="71.3125" y="15.5547" width="6" height="3" fill="black">
<rect fill="white" x="71.3125" y="15.5547" width="6" height="3"/>
<path d="M74.4622 16.5547L72.7179 16.5547C72.4937 16.5547 72.3125 16.7387 72.3125 16.9662L72.3125 18.1516C72.3636 18.1412 72.4167 18.1357 72.4713 18.135L72.4713 17.4939L74.4629 17.4939L74.4629 18.1343L74.6216 18.1343L74.6216 17.4939L76.6132 17.4939L76.6132 18.1343L76.68 18.1343C76.7113 18.1343 76.742 18.1371 76.7713 18.1419L76.7713 16.9662C76.7713 16.7387 76.5901 16.5547 76.3659 16.5547L74.4629 16.5547L74.4622 16.5547ZM74.4622 17.3327L72.4706 17.3327L72.4706 16.9662C72.4706 16.8279 72.581 16.7158 72.7172 16.7158L74.4615 16.7158L74.4615 17.3327L74.4622 17.3327ZM76.3652 16.7158C76.5015 16.7158 76.6119 16.8279 76.6119 16.9662L76.6119 17.3327L74.6203 17.3327L74.6203 16.7158L76.3652 16.7158Z"/>
</mask>
<path d="M74.4622 16.5547L72.7179 16.5547C72.4937 16.5547 72.3125 16.7387 72.3125 16.9662L72.3125 18.1516C72.3636 18.1412 72.4167 18.1357 72.4713 18.135L72.4713 17.4939L74.4629 17.4939L74.4629 18.1343L74.6216 18.1343L74.6216 17.4939L76.6132 17.4939L76.6132 18.1343L76.68 18.1343C76.7113 18.1343 76.742 18.1371 76.7713 18.1419L76.7713 16.9662C76.7713 16.7387 76.5901 16.5547 76.3659 16.5547L74.4629 16.5547L74.4622 16.5547ZM74.4622 17.3327L72.4706 17.3327L72.4706 16.9662C72.4706 16.8279 72.581 16.7158 72.7172 16.7158L74.4615 16.7158L74.4615 17.3327L74.4622 17.3327ZM76.3652 16.7158C76.5015 16.7158 76.6119 16.8279 76.6119 16.9662L76.6119 17.3327L74.6203 17.3327L74.6203 16.7158L76.3652 16.7158Z" fill="#191716"/>
<path d="M74.4622 16.5547L72.7179 16.5547C72.4937 16.5547 72.3125 16.7387 72.3125 16.9662L72.3125 18.1516C72.3636 18.1412 72.4167 18.1357 72.4713 18.135L72.4713 17.4939L74.4629 17.4939L74.4629 18.1343L74.6216 18.1343L74.6216 17.4939L76.6132 17.4939L76.6132 18.1343L76.68 18.1343C76.7113 18.1343 76.742 18.1371 76.7713 18.1419L76.7713 16.9662C76.7713 16.7387 76.5901 16.5547 76.3659 16.5547L74.4629 16.5547L74.4622 16.5547ZM74.4622 17.3327L72.4706 17.3327L72.4706 16.9662C72.4706 16.8279 72.581 16.7158 72.7172 16.7158L74.4615 16.7158L74.4615 17.3327L74.4622 17.3327ZM76.3652 16.7158C76.5015 16.7158 76.6119 16.8279 76.6119 16.9662L76.6119 17.3327L74.6203 17.3327L74.6203 16.7158L76.3652 16.7158Z" stroke="#191716" stroke-width="0.123206" mask="url(#path-52-outside-18_665_99)"/>
</g>
<g id="umbrella-full_9">
<path d="M78.307 9.68868C77.0785 8.59941 75.497 7.99219 73.8529 7.99219L72.0644 7.99219L72.1175 10.0829L78.1598 10.0829C78.3642 10.0829 78.4616 9.82492 78.3076 9.68868L78.307 9.68868Z" fill="#191716"/>
<path d="M62.9267 10.0829L72.1175 10.0829L72.0644 7.99219L67.2329 7.99219C65.5887 7.99219 64.0073 8.59872 62.7788 9.68867C62.6248 9.82492 62.7216 10.0829 62.9267 10.0829Z" fill="#191716"/>
</g>
<path id="bar-full_9" d="M70.9074 10.3047L70.1797 10.3047L70.1797 20.2453L70.9074 20.2453L70.9074 10.3047Z" fill="#191716"/>
<rect id="pivot-point_9" x="68.4688" y="9.16406" width="0.186206" height="0.186206" fill="#191716"/>
</g>
<g id="car-0">
<g id="rail-left_9">
<mask id="path-56-outside-19_665_99" maskUnits="userSpaceOnUse" x="41.0078" y="8.58594" width="6" height="3" fill="black">
<rect fill="white" x="41.0078" y="8.58594" width="6" height="3"/>
<path d="M44.1575 9.58594L42.4132 9.58594C42.1891 9.58594 42.0078 9.76991 42.0078 9.99744L42.0078 11.1732C42.0378 11.1683 42.0685 11.1656 42.0991 11.1656L42.1659 11.1656L42.1659 10.5251L44.1575 10.5251L44.1575 11.1656L44.3162 11.1656L44.3162 10.5251L46.3078 10.5251L46.3078 11.1662C46.3624 11.1662 46.4148 11.1725 46.4666 11.1828L46.4666 9.99744C46.4666 9.76991 46.2854 9.58594 46.0612 9.58594L44.1582 9.58594L44.1575 9.58594ZM44.1575 10.364L42.1659 10.364L42.1659 9.99744C42.1659 9.85912 42.2763 9.74709 42.4125 9.74709L44.1568 9.74709L44.1568 10.364L44.1575 10.364ZM46.0605 9.74709C46.1968 9.74709 46.3072 9.85912 46.3072 9.99744L46.3072 10.364L44.3156 10.364L44.3156 9.74709L46.0605 9.74709Z"/>
</mask>
<path d="M44.1575 9.58594L42.4132 9.58594C42.1891 9.58594 42.0078 9.76991 42.0078 9.99744L42.0078 11.1732C42.0378 11.1683 42.0685 11.1656 42.0991 11.1656L42.1659 11.1656L42.1659 10.5251L44.1575 10.5251L44.1575 11.1656L44.3162 11.1656L44.3162 10.5251L46.3078 10.5251L46.3078 11.1662C46.3624 11.1662 46.4148 11.1725 46.4666 11.1828L46.4666 9.99744C46.4666 9.76991 46.2854 9.58594 46.0612 9.58594L44.1582 9.58594L44.1575 9.58594ZM44.1575 10.364L42.1659 10.364L42.1659 9.99744C42.1659 9.85912 42.2763 9.74709 42.4125 9.74709L44.1568 9.74709L44.1568 10.364L44.1575 10.364ZM46.0605 9.74709C46.1968 9.74709 46.3072 9.85912 46.3072 9.99744L46.3072 10.364L44.3156 10.364L44.3156 9.74709L46.0605 9.74709Z" fill="#191716"/>
<path d="M44.1575 9.58594L42.4132 9.58594C42.1891 9.58594 42.0078 9.76991 42.0078 9.99744L42.0078 11.1732C42.0378 11.1683 42.0685 11.1656 42.0991 11.1656L42.1659 11.1656L42.1659 10.5251L44.1575 10.5251L44.1575 11.1656L44.3162 11.1656L44.3162 10.5251L46.3078 10.5251L46.3078 11.1662C46.3624 11.1662 46.4148 11.1725 46.4666 11.1828L46.4666 9.99744C46.4666 9.76991 46.2854 9.58594 46.0612 9.58594L44.1582 9.58594L44.1575 9.58594ZM44.1575 10.364L42.1659 10.364L42.1659 9.99744C42.1659 9.85912 42.2763 9.74709 42.4125 9.74709L44.1568 9.74709L44.1568 10.364L44.1575 10.364ZM46.0605 9.74709C46.1968 9.74709 46.3072 9.85912 46.3072 9.99744L46.3072 10.364L44.3156 10.364L44.3156 9.74709L46.0605 9.74709Z" stroke="#191716" stroke-width="0.123206" mask="url(#path-56-outside-19_665_99)"/>
</g>
<path id="bucket_9" d="M41.7266 11.7505L41.7266 14.3039C41.7266 14.9983 42.2812 15.5606 42.9646 15.5606L53.4949 15.5606C54.179 15.5606 54.733 14.9976 54.733 14.3039L54.733 11.7505C54.733 11.5431 54.5674 11.375 54.363 11.375L50.1618 11.375C49.8129 11.375 49.5301 11.662 49.5301 12.0161L49.5301 12.8267C49.5301 13.1808 49.2474 13.4678 48.8985 13.4678L47.5617 13.4678C47.2128 13.4678 46.9301 13.1808 46.9301 12.8267L46.9301 12.0161C46.9301 11.662 46.6473 11.375 46.2985 11.375L42.0972 11.375C41.8928 11.375 41.7272 11.5431 41.7272 11.7505L41.7266 11.7505Z" fill="#191716"/>
<g id="rail-right_9">
<mask id="path-58-outside-20_665_99" maskUnits="userSpaceOnUse" x="49" y="8.58594" width="6" height="3" fill="black">
<rect fill="white" x="49" y="8.58594" width="6" height="3"/>
<path d="M52.1497 9.58594L50.4054 9.58594C50.1812 9.58594 50 9.76991 50 9.99744L50 11.1828C50.0511 11.1725 50.1042 11.1669 50.1588 11.1662L50.1588 10.5251L52.1504 10.5251L52.1504 11.1656L52.3091 11.1656L52.3091 10.5251L54.3007 10.5251L54.3007 11.1656L54.3675 11.1656C54.3988 11.1656 54.4295 11.1683 54.4588 11.1732L54.4588 9.99744C54.4588 9.76991 54.2776 9.58594 54.0534 9.58594L52.1504 9.58594L52.1497 9.58594ZM52.1497 10.364L50.1581 10.364L50.1581 9.99744C50.1581 9.85912 50.2685 9.74709 50.4047 9.74709L52.149 9.74709L52.149 10.364L52.1497 10.364ZM54.0527 9.74709C54.189 9.74709 54.2994 9.85912 54.2994 9.99744L54.2994 10.364L52.3078 10.364L52.3078 9.74709L54.0527 9.74709Z"/>
</mask>
<path d="M52.1497 9.58594L50.4054 9.58594C50.1812 9.58594 50 9.76991 50 9.99744L50 11.1828C50.0511 11.1725 50.1042 11.1669 50.1588 11.1662L50.1588 10.5251L52.1504 10.5251L52.1504 11.1656L52.3091 11.1656L52.3091 10.5251L54.3007 10.5251L54.3007 11.1656L54.3675 11.1656C54.3988 11.1656 54.4295 11.1683 54.4588 11.1732L54.4588 9.99744C54.4588 9.76991 54.2776 9.58594 54.0534 9.58594L52.1504 9.58594L52.1497 9.58594ZM52.1497 10.364L50.1581 10.364L50.1581 9.99744C50.1581 9.85912 50.2685 9.74709 50.4047 9.74709L52.149 9.74709L52.149 10.364L52.1497 10.364ZM54.0527 9.74709C54.189 9.74709 54.2994 9.85912 54.2994 9.99744L54.2994 10.364L52.3078 10.364L52.3078 9.74709L54.0527 9.74709Z" fill="#191716"/>
<path d="M52.1497 9.58594L50.4054 9.58594C50.1812 9.58594 50 9.76991 50 9.99744L50 11.1828C50.0511 11.1725 50.1042 11.1669 50.1588 11.1662L50.1588 10.5251L52.1504 10.5251L52.1504 11.1656L52.3091 11.1656L52.3091 10.5251L54.3007 10.5251L54.3007 11.1656L54.3675 11.1656C54.3988 11.1656 54.4295 11.1683 54.4588 11.1732L54.4588 9.99744C54.4588 9.76991 54.2776 9.58594 54.0534 9.58594L52.1504 9.58594L52.1497 9.58594ZM52.1497 10.364L50.1581 10.364L50.1581 9.99744C50.1581 9.85912 50.2685 9.74709 50.4047 9.74709L52.149 9.74709L52.149 10.364L52.1497 10.364ZM54.0527 9.74709C54.189 9.74709 54.2994 9.85912 54.2994 9.99744L54.2994 10.364L52.3078 10.364L52.3078 9.74709L54.0527 9.74709Z" stroke="#191716" stroke-width="0.123206" mask="url(#path-58-outside-20_665_99)"/>
</g>
<g id="umbrella-full_10">
<path d="M55.9945 2.71993C54.766 1.63066 53.1845 1.02344 51.5404 1.02344L49.7519 1.02344L49.805 3.11414L55.8473 3.11414C56.0517 3.11414 56.1491 2.85617 55.9951 2.71993L55.9945 2.71993Z" fill="#191716"/>
<path d="M40.6142 3.11414L49.805 3.11414L49.7519 1.02344L44.9204 1.02344C43.2762 1.02344 41.6948 1.62997 40.4663 2.71992C40.3123 2.85617 40.4091 3.11414 40.6142 3.11414Z" fill="#191716"/>
</g>
<path id="bar-full_10" d="M48.5949 3.33594L47.8672 3.33594L47.8672 13.2766L48.5949 13.2766L48.5949 3.33594Z" fill="#191716"/>
<rect id="pivot-point_10" x="46.2812" y="2.22656" width="0.186206" height="0.186206" fill="#191716"/>
</g>
</g>
<g id="bars">
<path id="bar-4" d="M12.0845 32.1559C12.0765 32.1532 12.0722 32.1446 12.0748 32.1366C12.1045 32.0449 12.2697 31.5368 12.3836 31.2003C12.4976 30.8638 12.6752 30.3599 12.7073 30.269C12.7101 30.2611 12.7187 30.2569 12.7267 30.2596L84.8878 54.6981C84.8958 54.7008 84.9001 54.7094 84.8975 54.7174C84.8678 54.8091 84.7025 55.3178 84.5887 55.6537C84.475 55.9896 84.2971 56.4941 84.265 56.585C84.2622 56.5929 84.2536 56.5971 84.2456 56.5944L12.0845 32.1559Z" fill="#191716"/>
<path id="bar-3" d="M26.3803 12.5739C26.3755 12.5669 26.3772 12.5574 26.3841 12.5526C26.463 12.4973 26.9006 12.1906 27.194 11.9903C27.4874 11.79 27.9324 11.4943 28.0127 11.441C28.0197 11.4363 28.0291 11.4382 28.0339 11.4451L70.9868 74.3698C70.9915 74.3767 70.9898 74.3862 70.9829 74.391C70.904 74.4464 70.466 74.7534 70.1731 74.9533C69.8802 75.1533 69.4347 75.4493 69.3544 75.5027C69.3474 75.5074 69.338 75.5055 69.3332 75.4985L26.3803 12.5739Z" fill="#191716"/>
<path id="bar-2" d="M12.1628 55.415C12.1548 55.4175 12.1462 55.4131 12.1436 55.4051C12.114 55.3134 11.9498 54.8049 11.8448 54.4655C11.7399 54.1261 11.5883 53.6138 11.561 53.5213C11.5586 53.5133 11.5632 53.5048 11.5712 53.5023L84.3566 30.9909C84.3646 30.9884 84.3732 30.9928 84.3757 31.0008C84.4054 31.0926 84.5698 31.6016 84.6745 31.9404C84.7793 32.2792 84.931 32.7921 84.9584 32.8846C84.9607 32.8927 84.9562 32.9011 84.9481 32.9036L12.1628 55.415Z" fill="#191716"/>
<path id="bar-1" d="M26.4277 74.7937C26.4228 74.8005 26.4133 74.8021 26.4064 74.7972C26.3277 74.7416 25.8915 74.433 25.6041 74.2243C25.3166 74.0155 24.8882 73.6962 24.811 73.6386C24.8042 73.6336 24.8028 73.6241 24.8077 73.6172L69.5765 11.9713C69.5814 11.9644 69.5909 11.9628 69.5978 11.9677C69.6765 12.0234 70.1132 12.3323 70.4001 12.5407C70.687 12.7491 71.1159 13.0687 71.1932 13.1264C71.2 13.1314 71.2014 13.1409 71.1964 13.1477L26.4277 74.7937Z" fill="#191716"/>
<path id="bar-0" d="M48.9141 81.758C48.9141 81.7664 48.9073 81.7733 48.8989 81.7734C48.8025 81.7746 48.2683 81.7812 47.913 81.7812C47.5578 81.7812 47.0235 81.7746 46.9271 81.7734C46.9187 81.7733 46.912 81.7664 46.912 81.758L46.912 5.57097C46.912 5.56254 46.9187 5.55568 46.9271 5.55558C47.0235 5.55435 47.5584 5.54774 47.913 5.54774C48.2676 5.54774 48.8025 5.55435 48.8989 5.55558C48.9073 5.55568 48.9141 5.56255 48.9141 5.57097L48.9141 81.758Z" fill="#191716"/>
</g>
<g id="wheels">
<g id="outer-wheel">
<circle id="mask" cx="48.2416" cy="43.6791" r="38.1244" stroke="#191716" stroke-width="6.5453"/>
<circle id="black" cx="48.2416" cy="43.6791" r="38.1244" stroke="#191716" stroke-width="4.08119"/>
</g>
<g id="middle-wheel">
<circle id="mask_2" cx="48.2556" cy="43.6853" r="23.7556" stroke="#191716" stroke-width="5.29784"/>
<circle id="black_2" cx="48.2556" cy="43.6853" r="23.7556" stroke="#191716" stroke-width="2.94153"/>
</g>
<g id="inner-wheel">
<circle id="mask_3" cx="48.2612" cy="43.6987" r="11.0346" fill="#191716" stroke="#191716" stroke-width="5.05143"/>
<circle id="black_3" cx="48.2612" cy="43.6987" r="11.0346" stroke="#191716" stroke-width="2.58732"/>
</g>
<circle id="center-wheel" cx="48.17" cy="43.6934" r="7.63875" fill="#191716"/>
</g>
<g id="base-front">
<path id="crossbar-mask" d="M43.8633 56.6719H52.4825L54.0028 62.0005H42.3906L43.8633 56.6719Z" fill="#191716"/>
<g id="base-legs-mask" style="mix-blend-mode:overlay">
<path d="M46.8094 43.1206C47.241 41.7832 49.1332 41.7832 49.5648 43.1206L66.3744 95.2076C66.4129 95.3269 66.3239 95.4492 66.1985 95.4492H62.311C62.2299 95.4492 62.1582 95.3962 62.1344 95.3186L48.2311 50.0703C48.2178 50.0269 48.1563 50.0268 48.1428 50.0702L34.1353 95.319C34.1114 95.3964 34.0398 95.4492 33.9588 95.4492H30.1757C30.0503 95.4492 29.9613 95.3269 29.9998 95.2076L46.8094 43.1206Z" fill="#191716"/>
</g>
<path id="base-legs" d="M47.0803 43.4477C47.4236 42.3786 48.9364 42.3786 49.2797 43.4477L65.7825 94.8333C65.8208 94.9526 65.7319 95.0746 65.6066 95.0746H62.7273C62.6463 95.0746 62.5748 95.0219 62.5508 94.9446L48.3706 49.2181C48.3124 49.0304 48.0468 49.0302 47.9883 49.2178L33.7159 94.9449C33.6918 95.0221 33.6203 95.0746 33.5395 95.0746H30.7535C30.6282 95.0746 30.5392 94.9526 30.5775 94.8333L47.0803 43.4477Z" fill="#191716"/>
<path id="crossbar" d="M44.2215 57.0938H52.1245L53.5622 61.56H42.8125L44.2215 57.0938Z" fill="#191716"/>
</g>
</g>
</svg>
